<svg xmlns="http://www.w3.org/2000/svg" viewBox="0 0 64 64">
  <rect x="1" y="1" width="62" height="62" rx="13" fill="#111827" stroke="#334155" stroke-width="2"/>

  <!-- Change scale(...) to resize the lungs inside the icon. -->
  <g transform="translate(32 32) scale(1.25) translate(-32 -32)">
    <path d="M18 22h28M17 30h30M18 38h28M22 46h20" stroke="#ef4444" stroke-width="2.5" stroke-linecap="round" opacity=".22"/>

    <path d="M32 15v20" stroke="#e5e7eb" stroke-width="4" stroke-linecap="round"/>
    <path d="M28 25c-8 1-13 8-13 18 0 5 3 7 7 6 6-2 8-9 8-20 0-3-1-4-2-4Z" fill="#ef4444" opacity=".18"/>
    <path d="M36 25c8 1 13 8 13 18 0 5-3 7-7 6-6-2-8-9-8-20 0-3 1-4 2-4Z" fill="#ef4444" opacity=".18"/>
    <path d="M28 25c-8 1-13 8-13 18 0 5 3 7 7 6 6-2 8-9 8-20 0-3-1-4-2-4Z" fill="none" stroke="#f8fafc" stroke-width="3.5" stroke-linecap="round" stroke-linejoin="round"/>
    <path d="M36 25c8 1 13 8 13 18 0 5-3 7-7 6-6-2-8-9-8-20 0-3 1-4 2-4Z" fill="none" stroke="#f8fafc" stroke-width="3.5" stroke-linecap="round" stroke-linejoin="round"/>
  </g>
</svg>
